<svg width="309" height="21" viewBox="0 0 309 21" fill="none" xmlns="http://www.w3.org/2000/svg">
    <line y1="11.5" x2="129" y2="11.5" stroke="#D6D9DB" stroke-width="3" />
    <line x1="180" y1="11.5" x2="309" y2="11.5" stroke="#D6D9DB" stroke-width="3" />
    <path
        d="M145.061 10.707V11.1553C145.061 12.4678 145.31 13.54 145.808 14.3721C146.101 14.8643 146.465 15.2422 146.898 15.5059C147.338 15.7637 147.742 15.8926 148.111 15.8926H148.524C148.975 15.8926 149.394 15.7695 149.781 15.5234C150.513 15.0605 151.02 14.2959 151.301 13.2295C151.495 12.5029 151.591 11.75 151.591 10.9707V10.6719C151.591 10.6484 151.591 10.625 151.591 10.6016C151.591 9.99219 151.518 9.37109 151.372 8.73828C151.096 7.51367 150.587 6.66406 149.842 6.18945C149.409 5.91992 148.964 5.78516 148.507 5.78516H148.225C147.827 5.78516 147.42 5.90234 147.004 6.13672C146.242 6.56445 145.694 7.33203 145.36 8.43945C145.161 9.10156 145.061 9.85742 145.061 10.707ZM153.727 10.3994V11.0059C153.727 11.8262 153.595 12.6523 153.332 13.4844C152.834 15.0605 151.914 16.1445 150.572 16.7363C149.851 17.0586 149.119 17.2197 148.375 17.2197H148.181C146.664 17.2197 145.424 16.6484 144.464 15.5059C144.065 15.0254 143.743 14.4043 143.497 13.6426C143.257 12.8809 143.136 12.0986 143.136 11.2959V10.8916C143.136 10.0361 143.259 9.18652 143.506 8.34277C143.746 7.49316 144.124 6.77539 144.639 6.18945C145.612 5.07617 146.857 4.51953 148.375 4.51953H148.77C149.374 4.51953 150.004 4.66016 150.66 4.94141C151.978 5.49805 152.883 6.56152 153.376 8.13184C153.61 8.87012 153.727 9.62598 153.727 10.3994ZM158.869 10.6807H159.089C160.015 10.6807 160.75 10.4668 161.295 10.0391C161.84 9.61133 162.113 9.04004 162.113 8.3252V7.89453C162.113 7.26172 161.905 6.75781 161.489 6.38281C161.078 6.00195 160.507 5.81152 159.775 5.81152H159.467L159.388 5.82031L159.089 5.83789C158.984 5.84961 158.91 5.85547 158.869 5.85547C158.371 5.85547 158.122 6.09277 158.122 6.56738L158.096 6.7959L158.078 7.12109C158.078 7.17383 158.078 7.22656 158.078 7.2793L158.07 7.36719V7.77148L158.061 8.01758V9.49414L158.052 9.74023C158.052 10.1445 158.102 10.4023 158.201 10.5137C158.301 10.625 158.524 10.6807 158.869 10.6807ZM156.171 7.5166C156.165 7.34668 156.162 7.10059 156.162 6.77832C156.162 6.4502 156.133 6.11914 156.075 5.78516C156.016 5.45117 155.987 5.24609 155.987 5.16992C155.987 4.94141 156.215 4.78613 156.672 4.7041C157.129 4.62207 157.932 4.58105 159.08 4.58105H159.625C161.864 4.58105 163.264 5.25781 163.826 6.61133C163.973 6.96875 164.046 7.41113 164.046 7.93848C164.046 8.45996 163.944 8.93164 163.739 9.35352C163.534 9.76953 163.223 10.1973 162.807 10.6367C162.397 11.0703 162.192 11.4336 162.192 11.7266C162.192 12.0137 162.444 12.6025 162.948 13.4932C163.457 14.3779 163.832 14.9492 164.073 15.207C164.541 15.6992 164.776 16.042 164.776 16.2354V16.3936C164.776 16.6689 164.559 16.8066 164.125 16.8066H163.914C163.516 16.8066 163.15 16.6309 162.816 16.2793C162.622 16.0742 162.212 15.4502 161.585 14.4072C160.958 13.3584 160.61 12.7959 160.539 12.7197C160.17 12.3096 159.769 12.1045 159.335 12.1045C158.902 12.1045 158.574 12.3359 158.351 12.7988C158.24 13.0273 158.184 13.3701 158.184 13.8271C158.184 14.2842 158.222 14.7119 158.298 15.1104C158.374 15.5029 158.412 15.7285 158.412 15.7871C158.412 16.1328 158.275 16.3848 157.999 16.543C157.73 16.7012 157.393 16.7803 156.989 16.7803C156.584 16.7803 156.303 16.7188 156.145 16.5957C155.864 16.3789 155.723 16.0801 155.723 15.6992C155.723 15.5527 155.79 15.3271 155.925 15.0225C156.066 14.7119 156.151 14.4248 156.18 14.1611C156.215 13.8975 156.233 13.2939 156.233 12.3506V9.85449L156.224 9.59082C156.218 9.41504 156.215 9.23926 156.215 9.06348L156.189 8.02637L156.171 7.5166Z"
        fill="#D6D9DB" />
</svg>
