<svg width="161" height="35" viewBox="0 0 161 35" fill="none" xmlns="http://www.w3.org/2000/svg">
    <path
        d="M11.267 24H0.816955V22.218L1.54296 22.152C1.96829 22.108 2.18096 21.9027 2.18096 21.536V11.306L0.926955 11.24V9.37H6.22896V11.152L5.50296 11.218C5.07762 11.262 4.86496 11.4967 4.86496 11.922V21.734H8.51696C8.72229 21.734 8.85429 21.6827 8.91296 21.58C8.98629 21.4627 9.02296 21.2793 9.02296 21.03V19.49L11.267 19.644V24ZM17.382 22.394C18.9807 22.394 19.78 21.1033 19.78 18.522C19.78 17.2167 19.5967 16.2267 19.23 15.552C18.878 14.8773 18.2767 14.54 17.426 14.54C16.59 14.54 15.974 14.8627 15.578 15.508C15.182 16.1533 14.984 17.0333 14.984 18.148C14.984 20.216 15.3654 21.514 16.128 22.042C16.4654 22.2767 16.8834 22.394 17.382 22.394ZM12.322 18.456C12.322 17.3707 12.4834 16.432 12.806 15.64C13.1287 14.8333 13.5614 14.2173 14.104 13.792C15.1454 13 16.2967 12.604 17.558 12.604C18.438 12.604 19.1787 12.7507 19.78 13.044C20.396 13.3227 20.8727 13.6527 21.21 14.034C21.562 14.4007 21.8554 14.9433 22.09 15.662C22.3394 16.366 22.464 17.202 22.464 18.17C22.464 20.194 21.9727 21.7267 20.99 22.768C20.0074 23.8093 18.746 24.33 17.206 24.33C15.6807 24.33 14.4854 23.8387 13.62 22.856C12.7547 21.8587 12.322 20.392 12.322 18.456ZM33.4017 23.978C33.2697 25.606 32.8004 26.8013 31.9937 27.564C31.1871 28.3267 29.9257 28.708 28.2097 28.708C26.4937 28.708 25.1517 28.466 24.1837 27.982V24.924L26.2737 24.748V25.804C26.2737 26.2 26.4571 26.464 26.8237 26.596C27.1904 26.7427 27.6964 26.816 28.3417 26.816C29.2804 26.816 29.9404 26.53 30.3217 25.958C30.7031 25.4007 30.8937 24.6087 30.8937 23.582V22.372C30.1897 23.1933 29.2144 23.604 27.9677 23.604C27.2051 23.604 26.5304 23.4573 25.9437 23.164C25.3717 22.8707 24.9244 22.4747 24.6017 21.976C23.9711 20.9787 23.6557 19.8053 23.6557 18.456C23.6557 16.5347 24.1764 15.0827 25.2177 14.1C26.2591 13.1027 27.6451 12.604 29.3757 12.604C30.8131 12.604 32.1697 12.8753 33.4457 13.418V21.58C33.4457 22.8267 33.4311 23.626 33.4017 23.978ZM30.8937 19.512V14.782C30.3804 14.606 29.7937 14.518 29.1337 14.518C28.2391 14.518 27.5497 14.848 27.0657 15.508C26.5964 16.168 26.3617 17.0627 26.3617 18.192C26.3617 20.5093 27.1244 21.668 28.6497 21.668C29.2804 21.668 29.8084 21.4773 30.2337 21.096C30.6737 20.7 30.8937 20.172 30.8937 19.512ZM39.2272 12.934V22.174L40.4812 22.24V24H35.2452V22.328L35.9712 22.262C36.3965 22.218 36.6092 21.9833 36.6092 21.558V15.442C36.6092 15.1927 36.5652 15.024 36.4772 14.936C36.4039 14.848 36.2645 14.804 36.0592 14.804L35.2892 14.76V12.934H39.2272ZM36.4552 11.042C36.1472 10.734 35.9932 10.3453 35.9932 9.876C35.9932 9.40667 36.1472 9.018 36.4552 8.71C36.7632 8.38733 37.1665 8.226 37.6652 8.226C38.1639 8.226 38.5672 8.38733 38.8752 8.71C39.1979 9.018 39.3592 9.40667 39.3592 9.876C39.3592 10.3453 39.1979 10.734 38.8752 11.042C38.5672 11.3353 38.1639 11.482 37.6652 11.482C37.1665 11.482 36.7632 11.3353 36.4552 11.042ZM41.2896 14.694V12.934H45.0076V14.364C45.389 13.8213 45.895 13.396 46.5256 13.088C47.1563 12.7653 47.8383 12.604 48.5716 12.604C49.6863 12.604 50.5443 12.9267 51.1456 13.572C51.7616 14.2027 52.0696 15.156 52.0696 16.432V22.174L53.3236 22.24V24H48.0876V22.328L48.8136 22.262C49.0336 22.2327 49.195 22.174 49.2976 22.086C49.4003 21.9833 49.4516 21.8 49.4516 21.536V17.004C49.4516 16.1973 49.327 15.6033 49.0776 15.222C48.8283 14.826 48.3516 14.628 47.6476 14.628C46.9583 14.628 46.4083 14.848 45.9976 15.288C45.587 15.728 45.3816 16.2487 45.3816 16.85V22.174L46.6356 22.24V24H41.3996V22.328L42.1256 22.262C42.3456 22.2327 42.507 22.174 42.6096 22.086C42.7123 21.9833 42.7636 21.8 42.7636 21.536V15.442C42.7636 15.002 42.5803 14.7747 42.2136 14.76L41.2896 14.694Z"
        fill="#015C92" />
    <path
        d="M72.0074 24V22.218L72.7334 22.152C73.1587 22.108 73.3714 21.9027 73.3714 21.536V11.306L72.1174 11.24V9.37H78.1234C79.8247 9.37 81.1301 9.68533 82.0394 10.316C82.9487 10.9467 83.4034 11.9807 83.4034 13.418C83.4034 14.4153 83.1394 15.2367 82.6114 15.882C82.0981 16.5273 81.4821 16.9967 80.7634 17.29C81.2914 17.4807 81.7094 17.928 82.0174 18.632L83.6014 22.086L84.8554 22.13V24H79.4214V22.218L80.0594 22.152C80.3967 22.108 80.5654 21.976 80.5654 21.756C80.5654 21.668 80.5361 21.5653 80.4774 21.448L79.4434 19.248C79.2821 18.8813 79.0987 18.6247 78.8934 18.478C78.7027 18.3167 78.4241 18.236 78.0574 18.236H76.0554V22.064L77.4854 22.13V24H72.0074ZM76.0554 16.146H77.9694C79.7734 16.146 80.6754 15.3393 80.6754 13.726C80.6754 12.802 80.4334 12.2007 79.9494 11.922C79.4801 11.6433 78.7174 11.504 77.6614 11.504H76.0554V16.146ZM90.9895 12.604C92.0895 12.604 92.9622 12.8753 93.6075 13.418C94.2529 13.946 94.5755 14.694 94.5755 15.662C94.5755 16.3073 94.4362 16.8793 94.1575 17.378C93.8789 17.862 93.5342 18.2433 93.1235 18.522C92.7129 18.8007 92.2142 19.028 91.6275 19.204C90.6449 19.4973 89.5375 19.644 88.3055 19.644C88.3495 20.4213 88.5915 21.052 89.0315 21.536C89.4715 22.0053 90.1462 22.24 91.0555 22.24C91.9649 22.24 92.8742 21.9173 93.7835 21.272L94.6195 23.054C94.3262 23.318 93.8275 23.5893 93.1235 23.868C92.4342 24.1467 91.6422 24.286 90.7475 24.286C88.9582 24.286 87.6455 23.7947 86.8095 22.812C85.9735 21.8147 85.5555 20.4507 85.5555 18.72C85.5555 16.9893 86.0322 15.5373 86.9855 14.364C87.9389 13.1907 89.2735 12.604 90.9895 12.604ZM89.9775 17.642C90.5202 17.5393 91.0189 17.3267 91.4735 17.004C91.9282 16.6667 92.1555 16.2707 92.1555 15.816C92.1555 14.9213 91.7155 14.474 90.8355 14.474C90.0142 14.474 89.3835 14.804 88.9435 15.464C88.5035 16.1093 88.2615 16.8867 88.2175 17.796C88.8629 17.7813 89.4495 17.73 89.9775 17.642ZM105.58 23.978C105.448 25.606 104.979 26.8013 104.172 27.564C103.366 28.3267 102.104 28.708 100.388 28.708C98.6725 28.708 97.3305 28.466 96.3625 27.982V24.924L98.4525 24.748V25.804C98.4525 26.2 98.6358 26.464 99.0025 26.596C99.3691 26.7427 99.8751 26.816 100.52 26.816C101.459 26.816 102.119 26.53 102.5 25.958C102.882 25.4007 103.072 24.6087 103.072 23.582V22.372C102.368 23.1933 101.393 23.604 100.146 23.604C99.3838 23.604 98.7091 23.4573 98.1225 23.164C97.5505 22.8707 97.1031 22.4747 96.7805 21.976C96.1498 20.9787 95.8345 19.8053 95.8345 18.456C95.8345 16.5347 96.3551 15.0827 97.3965 14.1C98.4378 13.1027 99.8238 12.604 101.554 12.604C102.992 12.604 104.348 12.8753 105.624 13.418V21.58C105.624 22.8267 105.61 23.626 105.58 23.978ZM103.072 19.512V14.782C102.559 14.606 101.972 14.518 101.312 14.518C100.418 14.518 99.7285 14.848 99.2445 15.508C98.7751 16.168 98.5405 17.0627 98.5405 18.192C98.5405 20.5093 99.3031 21.668 100.828 21.668C101.459 21.668 101.987 21.4773 102.412 21.096C102.852 20.7 103.072 20.172 103.072 19.512ZM111.406 12.934V22.174L112.66 22.24V24H107.424V22.328L108.15 22.262C108.575 22.218 108.788 21.9833 108.788 21.558V15.442C108.788 15.1927 108.744 15.024 108.656 14.936C108.583 14.848 108.443 14.804 108.238 14.804L107.468 14.76V12.934H111.406ZM108.634 11.042C108.326 10.734 108.172 10.3453 108.172 9.876C108.172 9.40667 108.326 9.018 108.634 8.71C108.942 8.38733 109.345 8.226 109.844 8.226C110.343 8.226 110.746 8.38733 111.054 8.71C111.377 9.018 111.538 9.40667 111.538 9.876C111.538 10.3453 111.377 10.734 111.054 11.042C110.746 11.3353 110.343 11.482 109.844 11.482C109.345 11.482 108.942 11.3353 108.634 11.042ZM119.364 14.606C119.012 14.474 118.587 14.408 118.088 14.408C117.59 14.408 117.186 14.5253 116.878 14.76C116.585 14.98 116.438 15.2587 116.438 15.596C116.438 15.9187 116.49 16.1753 116.592 16.366C116.71 16.542 116.886 16.696 117.12 16.828C117.487 17.0187 117.927 17.1873 118.44 17.334C118.954 17.466 119.335 17.576 119.584 17.664C119.834 17.7373 120.142 17.8693 120.508 18.06C120.89 18.2507 121.176 18.456 121.366 18.676C121.88 19.2187 122.136 19.9153 122.136 20.766C122.136 21.866 121.733 22.7313 120.926 23.362C120.134 23.978 119.122 24.286 117.89 24.286C116.101 24.286 114.752 24.0587 113.842 23.604V20.546L115.822 20.392V21.448C115.822 22.0933 116.438 22.416 117.67 22.416C118.902 22.416 119.518 21.9687 119.518 21.074C119.518 20.7513 119.408 20.4873 119.188 20.282C118.983 20.0767 118.778 19.9373 118.572 19.864C118.367 19.7907 118.118 19.7173 117.824 19.644C117.546 19.5707 117.267 19.4973 116.988 19.424C116.724 19.3507 116.431 19.2553 116.108 19.138C115.8 19.006 115.456 18.8227 115.074 18.588C114.326 18.104 113.952 17.2973 113.952 16.168C113.952 15.024 114.356 14.144 115.162 13.528C115.969 12.912 116.981 12.604 118.198 12.604C119.43 12.604 120.648 12.8973 121.85 13.484V16.124L119.87 16.278V15.354C119.87 14.9873 119.702 14.738 119.364 14.606ZM125.42 10.602H126.85V12.934H129.776L129.556 14.782H126.85V20.568C126.85 21.2133 126.967 21.668 127.202 21.932C127.437 22.1813 127.796 22.306 128.28 22.306C128.779 22.306 129.277 22.152 129.776 21.844L130.436 23.538C129.703 24.0513 128.771 24.308 127.642 24.308C126.982 24.308 126.425 24.22 125.97 24.044C125.515 23.8827 125.178 23.6993 124.958 23.494C124.738 23.2887 124.569 22.988 124.452 22.592C124.335 22.196 124.269 21.888 124.254 21.668C124.239 21.4333 124.232 21.096 124.232 20.656V14.782H122.67L122.89 13.176C123.579 13.1173 124.1 12.8753 124.452 12.45C124.804 12.01 125.127 11.394 125.42 10.602ZM136.46 12.604C137.56 12.604 138.432 12.8753 139.078 13.418C139.723 13.946 140.046 14.694 140.046 15.662C140.046 16.3073 139.906 16.8793 139.628 17.378C139.349 17.862 139.004 18.2433 138.594 18.522C138.183 18.8007 137.684 19.028 137.098 19.204C136.115 19.4973 135.008 19.644 133.776 19.644C133.82 20.4213 134.062 21.052 134.502 21.536C134.942 22.0053 135.616 22.24 136.526 22.24C137.435 22.24 138.344 21.9173 139.254 21.272L140.09 23.054C139.796 23.318 139.298 23.5893 138.594 23.868C137.904 24.1467 137.112 24.286 136.218 24.286C134.428 24.286 133.116 23.7947 132.28 22.812C131.444 21.8147 131.026 20.4507 131.026 18.72C131.026 16.9893 131.502 15.5373 132.456 14.364C133.409 13.1907 134.744 12.604 136.46 12.604ZM135.448 17.642C135.99 17.5393 136.489 17.3267 136.944 17.004C137.398 16.6667 137.626 16.2707 137.626 15.816C137.626 14.9213 137.186 14.474 136.306 14.474C135.484 14.474 134.854 14.804 134.414 15.464C133.974 16.1093 133.732 16.8867 133.688 17.796C134.333 17.7813 134.92 17.73 135.448 17.642ZM142.625 21.536V15.442C142.625 15.2073 142.581 15.046 142.493 14.958C142.419 14.8553 142.28 14.7967 142.075 14.782L141.151 14.716V12.934H144.869V14.584C145.133 14.012 145.543 13.5427 146.101 13.176C146.658 12.7947 147.296 12.604 148.015 12.604C148.748 12.604 149.445 12.7653 150.105 13.088V16.366L148.059 16.52V15.508C148.059 15.2147 147.985 15.0313 147.839 14.958C147.677 14.8847 147.479 14.848 147.245 14.848C146.658 14.848 146.174 15.0607 145.793 15.486C145.426 15.8967 145.243 16.4247 145.243 17.07V22.174L147.157 22.262V24H141.261V22.328L141.987 22.262C142.207 22.2327 142.368 22.174 142.471 22.086C142.573 21.9833 142.625 21.8 142.625 21.536Z"
        fill="#8B8D8F" />
    <line x1="71" y1="33.5" x2="161" y2="33.5" stroke="#8B8D8F" stroke-width="3" />
    <line y1="33.5" x2="71" y2="33.5" stroke="#015C92" stroke-width="3" />
</svg>
