<svg width="39" height="38" viewBox="0 0 39 38" fill="none" xmlns="http://www.w3.org/2000/svg">
<path d="M23.8097 37.9999H14.2844C13.6295 37.9999 13.0937 37.4298 13.0937 36.7331V25.4909C13.0937 23.3058 14.7606 21.5323 16.8145 21.5323H21.2795C23.3334 21.5323 25.0004 23.3058 25.0004 25.4909V36.7331C25.0004 37.4298 24.4646 37.9999 23.8097 37.9999ZM15.475 35.4664H22.619V25.4909C22.619 24.7071 22.0162 24.0658 21.2795 24.0658H16.8145C16.0778 24.0658 15.475 24.7071 15.475 25.4909V35.4664Z" fill="#FD8F52"/>
<path d="M31.6979 38.0001H6.39619C4.50601 38.0001 2.97302 36.3691 2.97302 34.3582V15.1989C2.97302 14.5022 3.50882 13.9321 4.16369 13.9321C4.81856 13.9321 5.35436 14.5022 5.35436 15.1989V34.3582C5.35436 34.9678 5.82318 35.4666 6.39619 35.4666H31.6979C32.2709 35.4666 32.7397 34.9678 32.7397 34.3582V15.1989C32.7397 14.5022 33.2755 13.9321 33.9304 13.9321C34.5852 13.9321 35.121 14.5022 35.121 15.1989V34.3582C35.121 36.3612 33.588 38.0001 31.6979 38.0001Z" fill="#014C79"/>
<path d="M36.9069 19.6324C36.6018 19.6324 36.2967 19.5057 36.066 19.2603L21.2571 3.50529C20.0367 2.20689 18.0572 2.20689 16.8368 3.50529L2.02785 19.2603C1.56647 19.7511 0.807421 19.7511 0.346037 19.2603C-0.115346 18.7694 -0.115346 17.9619 0.346037 17.471L15.155 1.71603C17.3056 -0.572009 20.7957 -0.572009 22.9464 1.71603L37.7553 17.471C38.2167 17.9619 38.2167 18.7694 37.7553 19.2603C37.5172 19.5057 37.2121 19.6324 36.9069 19.6324Z" fill="#014C79"/>
</svg>
