<svg width="38" height="38" viewBox="0 0 38 38" fill="none" xmlns="http://www.w3.org/2000/svg">
<path d="M31.6135 38H6.3791C4.49395 38 2.96504 36.3691 2.96504 34.3582V15.1989C2.96504 14.5022 3.49942 13.9321 4.15254 13.9321C4.80567 13.9321 5.34004 14.5022 5.34004 15.1989V34.3582C5.34004 34.9678 5.80762 35.4666 6.3791 35.4666H31.6135C32.185 35.4666 32.6525 34.9678 32.6525 34.3582V15.1989C32.6525 14.5022 33.1869 13.9321 33.84 13.9321C34.4932 13.9321 35.0275 14.5022 35.0275 15.1989V34.3582C35.0275 36.3612 33.4986 38 31.6135 38Z" fill="#014C79"/>
<path d="M36.8088 19.6324C36.5045 19.6324 36.2002 19.5057 35.9701 19.2603L21.2006 3.50529C19.9834 2.20689 18.0092 2.20689 16.792 3.50529L2.02246 19.2603C1.5623 19.7511 0.805274 19.7511 0.345117 19.2603C-0.115039 18.7694 -0.115039 17.9619 0.345117 17.471L15.1147 1.71603C17.2596 -0.572009 20.7404 -0.572009 22.8854 1.71603L37.6549 17.471C38.115 17.9619 38.115 18.7694 37.6549 19.2603C37.4174 19.5057 37.1131 19.6324 36.8088 19.6324Z" fill="#014C79"/>
</svg>
