<svg width="38" height="38" viewBox="0 0 38 38" fill="none" xmlns="http://www.w3.org/2000/svg">
<path d="M35.235 3.72675C33.3668 1.31855 30.7753 0 27.9456 0C23.9621 0 21.4347 2.70121 20.0153 4.9812C19.649 5.56723 19.3376 6.15325 19.072 6.72096C19.0446 6.66602 19.0263 6.62024 18.9988 6.5653V11.1345C19.0263 11.1345 19.0537 11.1345 19.0812 11.1345C19.5574 11.1345 19.9878 10.7773 20.1343 10.2646C20.3083 9.64193 20.8394 8.03036 21.8376 6.42795C22.9548 4.64241 24.9145 2.50892 27.9548 2.50892C30.1434 2.50892 32.1489 3.53446 33.5775 5.39325C35.6929 8.13108 35.8027 11.4183 35.7844 12.3798C35.757 14.3942 35.2167 17.4067 30.0976 23.8805C27.6801 26.9296 24.0995 30.9494 19.0629 35.0607C19.0354 35.0333 19.0171 35.0149 18.9896 34.9875V38C19.0171 38 19.0354 38 19.0629 38C19.3193 38 19.5849 37.8993 19.7955 37.6887L19.8504 37.6337C20.8761 36.654 22.4969 35.0973 24.4383 33.147C32.8266 24.7504 34.713 21.7104 35.8852 19.3205C36.9383 17.1778 37.8906 15.1908 37.9914 12.3798C38.0372 11.3451 38.0005 7.29783 35.235 3.72675Z" fill="#015C92"/>
<path d="M2.77174 3.72675C4.63986 1.31855 7.23142 0 10.0611 0C14.0446 0 16.572 2.70121 17.9914 4.9812C18.3577 5.56723 18.6691 6.15325 18.9347 6.72096C18.9621 6.66602 18.9805 6.62024 19.0079 6.5653V11.1345C18.9805 11.1345 18.953 11.1345 18.9255 11.1345C18.4493 11.1345 18.0189 10.7773 17.8724 10.2646C17.6984 9.64193 17.1673 8.03036 16.1691 6.42795C15.0519 4.64241 13.0922 2.50892 10.0519 2.50892C7.86329 2.50892 5.8578 3.53446 4.42924 5.39325C2.31386 8.13108 2.20397 11.4183 2.22229 12.3798C2.24976 14.3942 2.79005 17.4067 7.90907 23.8805C10.3266 26.9296 13.9072 30.9494 18.9438 35.0607C18.9713 35.0333 18.9896 35.0149 19.0171 34.9875V38C18.9896 38 18.9713 38 18.9438 38C18.6874 38 18.4218 37.8993 18.2112 37.6887L18.1563 37.6337C17.1306 36.654 15.5098 35.0973 13.5684 33.147C5.17099 24.7504 3.28456 21.7104 2.1124 19.3296C1.05929 17.187 0.106915 15.2 0.00618275 12.3889C-0.0304471 11.3451 0.00618313 7.29783 2.77174 3.72675Z" fill="#015C92"/>
<path d="M31.5354 17.242C31.5354 16.9948 31.5262 15.5206 30.3357 14.3668C29.2094 13.2772 27.8266 13.2589 27.5519 13.2589C27.8083 13.2772 29.1544 13.3505 30.29 12.3432C31.6178 11.162 31.5354 9.48636 31.5354 9.28491C31.5262 9.52298 31.4896 11.0064 32.6617 12.1692C33.8247 13.3138 35.2716 13.2772 35.5097 13.268C35.3449 13.2497 33.5958 13.0758 32.387 14.4401C31.3614 15.6121 31.5079 17.0314 31.5354 17.242Z" fill="#FD8F52"/>
<path d="M28.5408 21.2527C28.5408 21.097 28.5316 20.218 27.8174 19.5312C27.1397 18.8811 26.3155 18.8719 26.1507 18.8719C26.3064 18.8811 27.1214 18.9177 27.799 18.3134C28.5957 17.6083 28.55 16.6011 28.5408 16.4729C28.5316 16.6102 28.5042 17.5076 29.2184 18.2035C29.9144 18.8902 30.7844 18.8628 30.9309 18.8536C30.8302 18.8445 29.7771 18.7437 29.0536 19.5587C28.4401 20.2637 28.5316 21.1153 28.5408 21.2527Z" fill="#FD8F52"/>
</svg>
