<svg width="38" height="38" viewBox="0 0 38 38" fill="none" xmlns="http://www.w3.org/2000/svg">
<path d="M21.3243 13.0789H10.414V16.7164H21.3243V13.0789Z" fill="#FD8F52"/>
<path d="M28.8144 19.4694H10.414V23.1069H28.8144V19.4694Z" fill="#FD8F52"/>
<path d="M37.4687 14.5682C37.4777 14.5772 37.4867 14.5772 37.4957 14.5862C37.4957 14.5682 37.4957 14.5591 37.4867 14.5411C37.3874 14.4689 37.3152 14.3515 37.3152 14.1891V14.0176C37.2701 13.9544 37.243 13.8732 37.243 13.7739V13.7287C37.225 13.6926 37.207 13.6565 37.207 13.6114C37.1528 13.5392 37.1257 13.4489 37.1167 13.3677C37.0445 13.2865 36.9994 13.1872 36.9904 13.0879C36.9182 13.0157 36.8821 12.9074 36.8731 12.8081C36.8279 12.7449 36.8009 12.6637 36.7918 12.5734C36.7106 12.4831 36.6745 12.3658 36.6745 12.2394C36.6565 12.2033 36.6384 12.1582 36.6204 12.1131C36.5662 12.0499 36.5301 11.9596 36.5121 11.8694C36.4579 11.7971 36.4309 11.7159 36.4309 11.6076V11.4993C36.3226 11.4181 36.2594 11.2917 36.2504 11.1653C36.1872 11.0931 36.1511 10.9938 36.1421 10.9036C36.0338 10.8133 35.9887 10.6689 35.9977 10.5335C35.9526 10.4793 35.9255 10.4071 35.9075 10.3349C35.8984 10.3259 35.8894 10.3259 35.8714 10.3169C32.7219 4.18812 26.3418 0 18.996 0C8.51888 0 0 8.52067 0 19C0 23.6124 1.63339 27.972 4.62041 31.429L0.406091 35.59C-0.451212 36.4385 0.144388 37.9007 1.35364 37.9097L10.8471 37.9549H17.6243C17.6965 37.9549 17.7597 37.9729 17.8139 37.991C19.5285 38 18.8246 38 18.996 38C31.2149 38 40.3384 26.5368 37.4687 14.5682ZM18.4636 35.2831L4.62944 35.22L7.45402 32.4309C7.98645 31.9074 7.99548 31.0409 7.46305 30.5083C4.39481 27.4304 2.70727 23.3416 2.70727 19C2.70727 10.019 10.0169 2.70784 18.996 2.70784C27.9752 2.70784 35.2848 10.019 35.2848 19C35.2848 27.6109 28.4715 35.3644 18.4636 35.2831Z" fill="#014C79"/>
</svg>
