<svg width="38" height="38" viewBox="0 0 38 38" fill="none" xmlns="http://www.w3.org/2000/svg">
<path d="M35.235 3.72675C33.3669 1.31855 30.7753 0 27.9456 0C23.9621 0 21.4347 2.70121 20.0153 4.9812C19.649 5.56723 19.3376 6.15325 19.072 6.72096C19.0446 6.66602 19.0263 6.62024 18.9988 6.5653V11.1345C19.0263 11.1345 19.0537 11.1345 19.0812 11.1345C19.5574 11.1345 19.9878 10.7773 20.1343 10.2646C20.3083 9.64193 20.8394 8.03036 21.8376 6.42795C22.9548 4.64241 24.9145 2.50892 27.9548 2.50892C30.1434 2.50892 32.1489 3.53446 33.5775 5.39325C35.6929 8.13108 35.8027 11.4183 35.7844 12.3798C35.757 14.3942 35.2167 17.4067 30.0976 23.8805C27.6801 26.9296 24.0995 30.9494 19.0629 35.0607C19.0354 35.0333 19.0171 35.0149 18.9896 34.9875V38C19.0171 38 19.0354 38 19.0629 38C19.3193 38 19.5849 37.8993 19.7955 37.6887L19.8504 37.6337C20.8761 36.654 22.4969 35.0973 24.4383 33.147C32.8266 24.7504 34.713 21.7104 35.8852 19.3205C36.9383 17.1778 37.8906 15.1908 37.9914 12.3798C38.0372 11.3451 38.0005 7.29783 35.235 3.72675Z" fill="#015C92"/>
<path d="M2.77174 3.72675C4.63986 1.31855 7.23142 0 10.0611 0C14.0446 0 16.572 2.70121 17.9914 4.9812C18.3577 5.56723 18.6691 6.15325 18.9347 6.72096C18.9621 6.66602 18.9805 6.62024 19.0079 6.5653V11.1345C18.9805 11.1345 18.953 11.1345 18.9255 11.1345C18.4493 11.1345 18.0189 10.7773 17.8724 10.2646C17.6984 9.64193 17.1673 8.03036 16.1691 6.42795C15.0519 4.64241 13.0922 2.50892 10.0519 2.50892C7.86329 2.50892 5.8578 3.53446 4.42924 5.39325C2.31386 8.13108 2.20398 11.4183 2.22229 12.3798C2.24976 14.3942 2.79005 17.4067 7.90908 23.8805C10.3266 26.9296 13.9072 30.9494 18.9438 35.0607C18.9713 35.0333 18.9896 35.0149 19.0171 34.9875V38C18.9896 38 18.9713 38 18.9438 38C18.6874 38 18.4219 37.8993 18.2112 37.6887L18.1563 37.6337C17.1306 36.654 15.5098 35.0973 13.5684 33.147C5.17099 24.7504 3.28456 21.7104 2.1124 19.3296C1.05929 17.187 0.106915 15.2 0.00618275 12.3889C-0.0304471 11.3451 0.00618314 7.29783 2.77174 3.72675Z" fill="#015C92"/>
</svg>
