<svg width="38" height="38" viewBox="0 0 38 38" fill="none" xmlns="http://www.w3.org/2000/svg">
<path d="M31.0186 25.0062V34.0134C31.0186 34.7471 30.4265 35.3393 29.693 35.3393H11.2233V37.9823H29.693C31.8847 37.9823 33.6698 36.1967 33.6698 34.0134V25.0062H31.0186Z" fill="#014C79"/>
<path d="M31.0186 21.1966H33.6698V18.9867C36.2944 17.0686 38 13.9837 38 10.5011C38 4.71133 33.2809 0 27.4837 0C22.8884 0 18.9823 2.95232 17.5507 7.06257H11.2233V9.70552H16.994C16.9763 9.97069 16.9675 10.2359 16.9675 10.5011C16.9675 16.2908 21.6865 21.0021 27.4837 21.0021C28.7209 21.0021 29.914 20.79 31.0186 20.3922V21.1966ZM27.4837 18.3503C23.1447 18.3503 19.6186 14.8323 19.6186 10.5011C19.6186 6.16981 23.1447 2.65178 27.4837 2.65178C31.8228 2.65178 35.3488 6.16981 35.3488 10.5011C35.3488 14.8323 31.8228 18.3503 27.4837 18.3503Z" fill="#014C79"/>
<path d="M33.6698 20.7192H31.0186V25.5632H33.6698V20.7192Z" fill="#014C79"/>
<path d="M2.65116 19.4198H0V25.5542H2.65116V19.4198Z" fill="#014C79"/>
<path d="M3.97674 7.07141C1.78512 7.07141 0 8.85694 0 11.0402V20.4187H2.65116V11.0491C2.65116 10.3154 3.24326 9.72319 3.97674 9.72319H17.586V7.08025L3.97674 7.07141Z" fill="#014C79"/>
<path d="M2.65116 34.0312V25.0328H0V34.0312C0 36.2145 1.79395 38 3.97674 38H17.586V35.3571H3.97674C3.24326 35.3571 2.65116 34.7649 2.65116 34.0312Z" fill="#014C79"/>
<path d="M13.3265 23.813C14.1925 22.9379 14.7316 21.7269 14.7316 20.401C14.7316 17.7227 12.5488 15.5394 9.87115 15.5394C7.19348 15.5394 5.01069 17.7227 5.01069 20.401C5.01069 21.7358 5.54976 22.9379 6.4158 23.813C5.13441 24.8383 4.30371 26.4117 4.30371 28.1796V31.7153C4.30371 32.4489 4.8958 33.0412 5.62929 33.0412H14.113C14.8465 33.0412 15.4386 32.4489 15.4386 31.7153V28.1796C15.4386 26.4117 14.6079 24.8383 13.3265 23.813ZM7.66185 20.401C7.66185 19.1812 8.65162 18.1912 9.87115 18.1912C11.0907 18.1912 12.0805 19.1812 12.0805 20.401C12.0805 21.6208 11.0907 22.6108 9.87115 22.6108C8.65162 22.6108 7.66185 21.6208 7.66185 20.401ZM12.7874 30.3894H6.95487V28.1796C6.95487 26.5708 8.26278 25.2626 9.87115 25.2626C11.4795 25.2626 12.7874 26.5708 12.7874 28.1796V30.3894Z" fill="#014C79"/>
</svg>
