<svg width="39" height="38" viewBox="0 0 39 38" fill="none" xmlns="http://www.w3.org/2000/svg">
<g clip-path="url(#clip0)">
<path d="M16.9922 0C8.13788 0 0.93866 7.19922 0.93866 16.0535C0.93866 24.9078 8.13788 32.107 16.9922 32.107C25.8465 32.107 33.0457 24.9078 33.0457 16.0535C33.0457 7.19922 25.8391 0 16.9922 0ZM16.9922 29.2941C9.68905 29.2941 3.75155 23.3566 3.75155 16.0535C3.75155 8.75039 9.68905 2.81289 16.9922 2.81289C24.2953 2.81289 30.2328 8.75039 30.2328 16.0535C30.2328 23.3566 24.2953 29.2941 16.9922 29.2941Z" fill="#014C79"/>
<path d="M38.5305 35.6027L28.3254 25.4051C27.7762 24.8559 26.8855 24.8559 26.3437 25.4051C25.7945 25.9543 25.7945 26.8449 26.3437 27.3867L36.5488 37.5918C36.8234 37.8664 37.1797 38 37.5433 38C37.907 38 38.2633 37.8664 38.5379 37.5918C39.0723 37.0426 39.0723 36.152 38.5305 35.6027Z" fill="#014C79"/>
</g>
<defs>
<clipPath id="clip0">
<rect width="38" height="38" fill="white" transform="translate(0.93866)"/>
</clipPath>
</defs>
</svg>
