<svg width="38" height="38" viewBox="0 0 38 38" fill="none" xmlns="http://www.w3.org/2000/svg">
<g clip-path="url(#clip0)">
<path d="M7.65933 10.6356C6.96909 10.2794 6.123 10.554 5.77417 11.2442C4.4605 13.8047 4.37144 16.8106 5.53667 19.4899C5.82613 20.1579 6.57574 20.4844 7.25113 20.2618C7.29566 20.2469 7.34019 20.2321 7.38472 20.2098C8.09722 19.9055 8.42378 19.0743 8.11206 18.3618C7.28081 16.4618 7.34019 14.3317 8.26792 12.5208C8.62417 11.838 8.34956 10.9919 7.65933 10.6356Z" fill="#FD8F52"/>
<path d="M16.0535 0C7.19922 0 0 7.19922 0 16.0535C0 24.9078 7.19922 32.107 16.0535 32.107C24.9078 32.107 32.107 24.9078 32.107 16.0535C32.107 7.19922 24.9004 0 16.0535 0ZM16.0535 29.2941C8.75039 29.2941 2.81289 23.3566 2.81289 16.0535C2.81289 8.75039 8.75039 2.81289 16.0535 2.81289C23.3566 2.81289 29.2941 8.75039 29.2941 16.0535C29.2941 23.3566 23.3566 29.2941 16.0535 29.2941Z" fill="#014C79"/>
<path d="M37.5918 35.6027L27.3867 25.4051C26.8375 24.8559 25.9469 24.8559 25.4051 25.4051C24.8559 25.9543 24.8559 26.8449 25.4051 27.3867L35.6102 37.5918C35.8848 37.8664 36.241 38 36.6047 38C36.9684 38 37.3246 37.8664 37.5992 37.5918C38.1336 37.0426 38.1336 36.152 37.5918 35.6027Z" fill="#014C79"/>
<path d="M12.5652 7.3551C12.2757 6.63518 11.4593 6.28635 10.7394 6.57581C8.06754 7.65198 6.04136 9.8637 5.16558 12.6543C4.95035 13.352 5.29918 14.0793 5.9523 14.3614C5.99683 14.3762 6.04136 14.3985 6.08589 14.4133C6.82808 14.6508 7.6148 14.2352 7.84488 13.493C8.46089 11.5114 9.90074 9.93791 11.7859 9.18088C12.5058 8.89885 12.8546 8.07503 12.5652 7.3551Z" fill="#FD8F52"/>
</g>
<defs>
<clipPath id="clip0">
<rect width="38" height="38" fill="white"/>
</clipPath>
</defs>
</svg>
